<svg width="430" height="932" viewBox="0 0 430 932" fill="none" xmlns="http://www.w3.org/2000/svg">
  <g clip-path="url(#clip0_326_1269)">
    <rect width="430" height="932" fill="url(#paint0_linear_326_1269)" />
    <g filter="url(#filter0_i_326_1269)">
      <path
        d="M453.163 520.023C443.752 523.612 436.103 523.566 429.161 518.807C421.665 514.258 415.662 508.646 409.105 503.246C403.772 499.353 398.44 495.461 391.781 493.062C373.584 487.163 354.712 495.842 349.222 512.75C344.773 525.805 346.362 538.039 347.231 550.053C348.318 560.997 349.405 571.941 347.942 582.869C347.505 585.011 347.236 587.583 344.468 588.638C341.147 589.905 340.141 587.326 338.917 585.817C327.515 572.881 319.1 557.819 310.852 543.187C296.702 519.941 285.153 495.209 264.143 475.568C259.917 471.253 254.584 467.361 247.926 464.962C232.162 457.147 220.821 463.941 214.412 470.336C213.858 470.547 213.472 471.188 212.918 471.4C212.147 472.682 211.207 473.534 210.267 474.386C210.435 474.816 209.881 475.027 209.881 475.027L209.495 475.668L208.723 476.95C207.566 478.873 206.408 480.796 205.803 482.508C204.208 486.573 202.781 491.068 202.629 495.571C201.822 503.286 201.568 510.791 202.588 518.303C206.418 555.855 219.44 590.889 227.866 627.183C231.903 642.433 235.387 657.895 236.489 673.771C236.606 675.701 237.444 677.851 234.123 679.118C231.908 679.962 230.517 678.024 229.46 676.945C222.736 671.115 216.951 664.432 212.274 657.327C197.972 638.583 186.103 617.924 170.862 600.033C163.685 591.412 156.677 583.221 145.189 578.219C129.927 571.694 112.213 578.45 104.61 593.201C101.908 597.689 100.648 602.614 99.9424 607.327C97.4538 627.042 101.557 645.724 103.665 664.18C105.306 674.912 106.946 685.645 106.205 696.792C106.321 698.723 106.271 700.224 103.503 701.279C100.902 702.765 99.6785 701.256 98.6221 700.178C95.6206 697.372 92.7866 694.996 89.7851 692.19C80.2777 682.482 71.1562 672.134 58.2766 665.194C44.8433 658.465 30.0997 658.162 13.4923 664.496L-40.7587 685.186C-43.5266 686.242 -45.9085 686.656 -48.1736 689.002L-40.1289 709.637C-37.0258 709.442 -34.8114 708.597 -32.0435 707.541C-14.8825 700.997 2.27852 694.452 19.2719 687.477C28.6828 683.888 36.113 685.005 42.8881 689.334C51.4407 694.962 57.3929 702.074 64.4524 708.765C70.7907 715.237 76.9613 721.278 85.5647 725.405C104.717 735.385 128.185 725.446 133.777 705.536C138.881 689.268 136.286 674.455 134.077 659.001C132.203 644.407 129.221 630.235 129.008 615.008C128.891 613.077 129.328 610.935 129.379 609.434C129.815 607.292 129.699 605.362 132.081 604.947C134.295 604.102 135.519 605.611 136.575 606.69C143.467 612.95 148.866 620.274 154.432 628.028C168.515 647.842 181.106 668.72 197.789 687.049C201.126 690.714 204.463 694.38 208.353 697.835C217.744 705.612 228.846 711.254 244.412 708.774L249.948 706.663C261.121 699.439 264.529 690.238 265.606 679.95C267.708 660.877 263.219 642.836 259.283 624.583C251.309 591.081 239.846 558.415 234.087 524.068C232.563 515.266 231.593 506.253 231.898 497.248C231.781 495.317 231.329 492.527 234.097 491.471C237.804 489.563 238.977 492.573 240.755 493.87C251.537 503.585 258.612 515.208 266.408 527.05C280.39 549.866 291.385 574.809 308.688 596.358C313.031 602.603 318.313 607.996 325.088 612.326C342.696 624.87 362.945 613.197 370.832 600.806C377.393 589.909 378.856 578.98 378.323 567.825C378.612 553.888 377.073 540.153 376.809 526.427C376.525 524.066 375.352 521.057 379.227 519.579C382.381 517.882 384.275 521.11 386.053 522.408C393.666 528.887 401.279 535.367 410.217 540.353C425.042 549.02 441.563 550.62 460.771 542.801C480.918 534.13 501.015 526.959 521.497 519.147L513.117 497.652C493.021 504.822 472.924 511.993 453.163 520.023Z"
        fill="white" />
    </g>
    <path d="M-5 0H205.5H430V941H-5V0Z" fill="url(#paint1_linear_326_1269)" />
    <g filter="url(#filter1_i_326_1269)">
      <g filter="url(#filter2_d_326_1269)">
        <path
          d="M-3.87036 440.505C5.02658 436.987 12.2054 436.726 18.6388 440.627C25.5956 444.321 31.1321 449.007 37.192 453.486C42.1294 456.69 47.0668 459.894 53.2747 461.736C70.2526 466.194 88.1205 457.838 93.5708 442.791C97.9762 431.165 96.6988 420.498 96.0946 409.994C95.2665 400.438 94.4384 390.882 96.0033 381.239C96.4508 379.343 96.7487 377.076 99.3654 376.041C102.506 374.8 103.404 377.022 104.527 378.297C115.002 389.194 122.637 402.074 130.123 414.584C142.996 434.416 153.403 455.654 172.781 472.054C176.672 475.672 181.609 478.876 187.817 480.718C202.478 486.952 213.242 480.546 219.371 474.684C219.894 474.477 220.268 473.9 220.791 473.693C221.539 472.538 222.435 471.753 223.332 470.969C223.183 470.598 223.706 470.391 223.706 470.391L224.08 469.814L224.827 468.659C225.947 466.926 227.068 465.194 227.665 463.669C229.234 460.04 230.652 456.042 230.874 452.086C231.768 445.287 232.138 438.695 231.312 432.146C228.376 399.359 216.768 369.143 209.496 337.642C205.974 324.425 202.975 311 202.219 297.118C202.143 295.429 201.394 293.577 204.534 292.335C206.628 291.507 207.9 293.153 208.873 294.057C215.082 298.906 220.395 304.54 224.661 310.588C237.757 326.465 248.536 344.118 262.528 359.21C269.113 366.489 275.548 373.398 286.244 377.332C300.456 382.455 317.203 375.831 324.599 362.593C327.214 358.551 328.482 354.182 329.228 350.019C331.91 332.629 328.386 316.405 326.731 300.3C325.38 290.951 324.029 281.602 324.92 271.795C324.845 270.106 324.919 268.788 327.535 267.753C330.002 266.348 331.125 267.623 332.097 268.527C334.866 270.87 337.484 272.842 340.252 275.185C349.007 283.326 357.387 292.043 369.355 297.623C381.847 302.996 395.681 302.681 411.382 296.472L462.67 276.187C465.287 275.152 467.53 274.695 469.697 272.549L462.508 254.766C459.592 255.059 457.498 255.887 454.882 256.922C438.658 263.339 422.434 269.755 406.36 276.542C397.463 280.061 390.508 279.374 384.224 275.843C376.295 271.244 370.832 265.24 364.323 259.649C358.487 254.223 352.801 249.166 344.797 245.886C326.995 237.887 304.79 247.528 299.192 265.212C294.115 279.681 296.291 292.572 298.094 306.04C299.597 318.767 302.146 331.079 302.079 344.427C302.155 346.116 301.707 348.012 301.633 349.331C301.186 351.226 301.261 352.915 299.018 353.373C296.925 354.201 295.802 352.926 294.83 352.021C288.47 346.801 283.531 340.59 278.442 334.008C265.57 317.184 254.118 299.367 238.779 283.948C235.712 280.864 232.644 277.78 229.053 274.903C220.374 268.452 210.052 263.94 195.396 266.728L190.163 268.798C179.548 275.575 176.187 283.779 174.996 292.845C172.688 309.657 176.585 325.305 179.959 341.159C186.856 370.23 197.043 398.431 201.846 428.33C203.121 435.99 203.874 443.857 203.43 451.768C203.505 453.457 203.881 455.887 201.264 456.922C197.75 458.741 196.702 456.148 195.056 455.08C185.105 446.983 178.669 437.067 171.559 426.987C158.835 407.526 148.951 386.081 133.087 367.861C129.121 362.555 124.257 358.032 117.974 354.501C101.665 344.192 82.4529 355.228 74.8317 366.407C68.4809 376.224 66.916 385.867 67.2208 395.63C66.7043 407.866 67.9077 419.852 67.9146 431.882C68.1402 433.941 69.1886 436.534 65.5251 437.983C62.5348 439.596 60.8133 436.839 59.1675 435.771C52.1349 430.388 45.1024 425.004 36.7994 420.983C23.0356 413.965 7.55548 413.211 -10.612 420.826C-29.6763 429.226 -48.6667 436.306 -68.0306 443.965L-60.5419 462.489C-41.5515 455.408 -22.5612 448.327 -3.87036 440.505Z"
          fill="#232323" />
      </g>
    </g>
    <g filter="url(#filter3_i_326_1269)">
      <g filter="url(#filter4_d_326_1269)">
        <path
          d="M45.0089 923.345C53.8017 919.868 60.9071 919.636 67.2915 923.557C74.1932 927.273 79.693 931.973 85.7099 936.469C90.6106 939.687 95.5113 942.906 101.664 944.77C118.489 949.288 136.142 941.017 141.477 926.016C145.79 914.426 144.482 903.771 143.841 893.282C142.982 883.738 142.124 874.194 143.633 864.573C144.069 862.682 144.354 860.42 146.94 859.397C150.044 858.17 150.942 860.393 152.059 861.67C162.473 872.591 170.084 885.481 177.545 898C190.369 917.852 200.758 939.096 220.007 955.548C223.873 959.175 228.774 962.394 234.927 964.258C249.465 970.54 260.095 964.187 266.138 958.359C266.655 958.155 267.023 957.58 267.54 957.375C268.275 956.225 269.159 955.446 270.044 954.666C269.894 954.295 270.412 954.091 270.412 954.091L270.779 953.516L271.514 952.366C272.616 950.641 273.719 948.915 274.304 947.395C275.841 943.779 277.229 939.792 277.433 935.844C278.29 929.059 278.629 922.479 277.785 915.938C274.745 883.192 263.131 852.979 255.804 821.499C252.263 808.289 249.239 794.874 248.435 781.012C248.353 779.325 247.604 777.473 250.707 776.245C252.776 775.427 254.042 777.075 255.009 777.982C261.176 782.848 266.458 788.494 270.705 794.549C283.734 810.453 294.476 828.12 308.389 843.244C314.937 850.538 321.335 857.461 331.94 861.432C346.028 866.602 362.58 860.056 369.847 846.869C372.419 842.844 373.657 838.487 374.378 834.334C376.962 816.983 373.408 800.77 371.704 784.685C370.328 775.345 368.952 766.006 369.795 756.219C369.713 754.532 369.781 753.216 372.367 752.194C374.804 750.8 375.92 752.078 376.887 752.985C379.636 755.335 382.236 757.314 384.986 759.665C393.685 767.827 402.017 776.564 413.887 782.182C426.275 787.596 439.968 787.337 455.485 781.2L506.173 761.154C508.759 760.131 510.978 759.683 513.115 757.549L505.925 739.766C503.04 740.047 500.971 740.866 498.385 741.888C482.351 748.23 466.317 754.571 450.432 761.283C441.64 764.761 434.752 764.047 428.517 760.497C420.649 755.873 415.217 749.857 408.751 744.25C402.952 738.809 397.302 733.738 389.366 730.431C371.71 722.373 349.769 731.91 344.299 749.543C339.333 763.97 341.539 776.848 343.379 790.301C344.918 803.013 347.492 815.317 347.48 828.643C347.562 830.329 347.127 832.22 347.059 833.536C346.624 835.427 346.706 837.114 344.487 837.562C342.418 838.38 341.302 837.102 340.335 836.196C334.019 830.959 329.104 824.738 324.039 818.146C311.229 801.297 299.82 783.464 284.573 768.008C281.523 764.917 278.474 761.826 274.907 758.94C266.29 752.464 256.053 747.918 241.557 750.643L236.385 752.689C225.904 759.412 222.611 767.59 221.469 776.636C219.252 793.413 223.174 809.05 226.579 824.892C233.525 853.945 243.724 882.14 248.6 912.01C249.894 919.663 250.671 927.521 250.264 935.417C250.346 937.103 250.727 939.531 248.141 940.553C244.67 942.356 243.622 939.762 241.988 938.69C232.105 930.566 225.692 920.641 218.613 910.549C205.938 891.068 196.067 869.618 180.289 851.365C176.34 846.051 171.508 841.516 165.273 837.966C149.087 827.608 130.114 838.55 122.615 849.68C116.368 859.456 114.858 869.077 115.2 878.826C114.739 891.04 115.979 903.012 116.035 915.022C116.266 917.079 117.315 919.672 113.694 921.104C110.741 922.702 109.025 919.943 107.392 918.87C100.408 913.467 93.4244 908.065 85.1888 904.016C71.5352 896.955 56.2082 896.141 38.255 903.671C19.4172 911.981 0.647271 918.974 -18.4901 926.543L-11.0013 945.067C7.76858 938.074 26.5385 931.08 45.0089 923.345Z"
          fill="#323232" />
      </g>
    </g>
    <g filter="url(#filter5_i_326_1269)">
      <path
        d="M433.58 51.8183C424.246 55.3782 416.66 55.3326 409.774 50.6116C402.338 46.1001 396.384 40.5339 389.881 35.1771C384.592 31.3166 379.302 27.4561 372.698 25.0766C354.649 19.225 335.931 27.8335 330.485 44.6047C326.072 57.5533 327.649 69.6871 328.511 81.6039C329.589 92.4585 330.667 103.313 329.216 114.152C328.783 116.277 328.516 118.828 325.77 119.875C322.476 121.131 321.478 118.573 320.264 117.076C308.956 104.246 300.609 89.3064 292.428 74.7931C278.394 51.7363 266.939 27.2061 246.099 7.72446C241.908 3.44512 236.618 -0.415404 230.014 -2.79488C214.378 -10.5463 203.13 -3.8073 196.773 2.53571C196.224 2.74512 195.841 3.38094 195.292 3.59035C194.526 4.86199 193.594 5.70722 192.662 6.55245C192.828 6.97886 192.279 7.18827 192.279 7.18827L191.896 7.82409L191.131 9.09573C189.982 11.0032 188.834 12.9107 188.234 14.6087C186.653 18.6407 185.237 23.099 185.086 27.565C184.285 35.2176 184.033 42.6609 185.046 50.1117C188.844 87.3583 201.76 122.107 210.117 158.105C214.122 173.231 217.577 188.567 218.671 204.314C218.786 206.229 219.618 208.361 216.323 209.618C214.127 210.455 212.747 208.533 211.699 207.463C205.029 201.68 199.292 195.051 194.652 188.004C180.467 169.413 168.695 148.922 153.577 131.177C146.46 122.626 139.508 114.501 128.113 109.54C112.976 103.068 95.4056 109.769 87.8646 124.401C85.1847 128.851 83.9355 133.736 83.2353 138.411C80.767 157.966 84.8373 176.496 86.9278 194.801C88.5549 205.446 90.182 216.091 89.4466 227.148C89.5624 229.063 89.5121 230.552 86.7667 231.599C84.1876 233.072 82.9735 231.576 81.9258 230.506C78.9487 227.723 76.1378 225.366 73.1607 222.583C63.7307 212.955 54.6835 202.69 41.9087 195.807C28.5848 189.133 13.9612 188.832 -2.511 195.114L-56.3203 215.636C-59.0657 216.683 -61.4282 217.095 -63.6749 219.421L-55.6956 239.889C-52.6178 239.695 -50.4215 238.857 -47.6761 237.81C-30.6548 231.318 -13.6335 224.827 3.22159 217.909C12.5559 214.349 19.9256 215.456 26.6455 219.751C35.1284 225.332 41.0323 232.387 48.0342 239.023C54.3209 245.442 60.4414 251.435 68.9747 255.528C87.9707 265.426 111.248 255.569 116.795 235.821C121.857 219.685 119.283 204.993 117.092 189.665C115.233 175.19 112.276 161.133 112.064 146.03C111.948 144.114 112.382 141.99 112.432 140.501C112.865 138.377 112.749 136.462 115.112 136.051C117.308 135.213 118.522 136.709 119.57 137.779C126.406 143.989 131.76 151.253 137.281 158.944C151.25 178.597 163.738 199.304 180.286 217.484C183.595 221.12 186.905 224.756 190.764 228.182C200.078 235.896 211.089 241.492 226.529 239.033L232.02 236.939C243.102 229.773 246.482 220.647 247.55 210.443C249.635 191.525 245.182 173.631 241.278 155.527C233.37 122.297 222 89.8974 216.288 55.8299C214.776 47.0998 213.814 38.1603 214.116 29.2284C214.001 27.3133 213.552 24.5454 216.298 23.4984C219.975 21.6061 221.139 24.591 222.902 25.8779C233.596 35.514 240.613 47.0424 248.346 58.7878C262.214 81.4181 273.12 106.158 290.282 127.532C294.589 133.726 299.828 139.075 306.548 143.37C324.012 155.812 344.096 144.234 351.919 131.944C358.428 121.135 359.878 110.295 359.35 99.2313C359.637 85.407 358.11 71.7846 357.848 58.1697C357.566 55.8282 356.403 52.8433 360.246 51.3775C363.374 49.6946 365.253 52.8965 367.016 54.1834C374.567 60.61 382.118 67.0366 390.984 71.9821C405.688 80.5788 422.075 82.1663 441.126 74.4106C461.11 65.8097 481.043 58.6975 501.358 50.9494L493.047 29.6287C473.114 36.7409 453.181 43.8532 433.58 51.8183Z"
        fill="#181818" />
    </g>
    <g filter="url(#filter6_i_326_1269)">
      <path
        d="M398.194 574.818C388.86 578.378 381.274 578.333 374.387 573.612C366.952 569.1 360.998 563.534 354.495 558.177C349.206 554.317 343.916 550.456 337.312 548.077C319.263 542.225 300.544 550.833 295.099 567.605C290.686 580.553 292.263 592.687 293.124 604.604C294.202 615.458 295.28 626.313 293.83 637.152C293.396 639.277 293.129 641.828 290.384 642.875C287.09 644.131 286.092 641.573 284.878 640.076C273.569 627.246 265.222 612.306 257.042 597.793C243.007 574.736 231.552 550.206 210.713 530.724C206.521 526.445 201.232 522.585 194.628 520.205C178.992 512.454 167.744 519.193 161.386 525.536C160.837 525.745 160.455 526.381 159.905 526.59C159.14 527.862 158.208 528.707 157.276 529.552C157.442 529.979 156.893 530.188 156.893 530.188L156.51 530.824L155.745 532.096C154.596 534.003 153.448 535.911 152.848 537.609C151.266 541.641 149.851 546.099 149.7 550.565C148.899 558.218 148.647 565.661 149.66 573.112C153.458 610.358 166.374 645.107 174.731 681.105C178.736 696.231 182.191 711.567 183.284 727.314C183.4 729.229 184.231 731.361 180.937 732.618C178.741 733.455 177.36 731.533 176.313 730.463C169.643 724.68 163.906 718.051 159.266 711.004C145.081 692.413 133.308 671.922 118.191 654.177C111.073 645.626 104.122 637.501 92.7271 632.54C77.5897 626.068 60.0193 632.769 52.4784 647.401C49.7985 651.851 48.5492 656.736 47.8491 661.411C45.3808 680.966 49.451 699.496 51.5416 717.801C53.1687 728.446 54.7958 739.091 54.0603 750.148C54.1762 752.063 54.1258 753.552 51.3805 754.599C48.8013 756.072 47.5873 754.576 46.5395 753.506C43.5624 750.723 40.7516 748.366 37.7745 745.583C28.3445 735.955 19.2973 725.69 6.52245 718.807C-6.80145 712.133 -21.425 711.832 -37.8972 718.114L-91.7066 738.636C-94.4519 739.683 -96.8145 740.095 -99.0611 742.421L-91.0819 762.889C-88.004 762.695 -85.8077 761.857 -83.0624 760.81C-66.041 754.318 -49.0197 747.827 -32.1646 740.909C-22.8304 737.349 -15.4607 738.456 -8.74078 742.751C-0.257807 748.332 5.64603 755.387 12.648 762.023C18.9347 768.442 25.0551 774.435 33.5885 778.528C52.5845 788.426 75.8622 778.569 81.4083 758.821C86.4709 742.685 83.8967 727.993 81.7055 712.665C79.8466 698.19 76.8896 684.133 76.678 669.03C76.5622 667.114 76.9954 664.99 77.0458 663.501C77.479 661.377 77.3631 659.462 79.7256 659.051C81.9219 658.213 83.136 659.709 84.1837 660.779C91.0195 666.989 96.3742 674.253 101.895 681.944C115.864 701.597 128.352 722.304 144.9 740.484C148.209 744.12 151.519 747.756 155.377 751.182C164.691 758.896 175.703 764.492 191.143 762.033L196.634 759.939C207.716 752.773 211.096 743.647 212.164 733.443C214.249 714.525 209.796 696.631 205.892 678.527C197.983 645.297 186.614 612.897 180.901 578.83C179.39 570.1 178.428 561.16 178.73 552.228C178.614 550.313 178.166 547.545 180.911 546.498C184.589 544.606 185.752 547.591 187.515 548.878C198.21 558.514 205.227 570.042 212.959 581.788C226.827 604.418 237.733 629.158 254.896 650.532C259.203 656.726 264.442 662.075 271.161 666.37C288.626 678.812 308.71 667.234 316.533 654.944C323.042 644.135 324.492 633.295 323.963 622.231C324.25 608.407 322.724 594.785 322.462 581.17C322.18 578.828 321.016 575.843 324.86 574.377C327.988 572.695 329.867 575.897 331.63 577.183C339.181 583.61 346.732 590.037 355.598 594.982C370.302 603.579 386.689 605.166 405.74 597.411C425.723 588.81 445.656 581.697 465.972 573.949L457.66 552.629C437.728 559.741 417.795 566.853 398.194 574.818Z"
        fill="#2C2C2C" />
    </g>
  </g>
  <defs>
    <filter id="filter0_i_326_1269" x="-89.4485" y="372" width="639.438" height="435.358" filterUnits="userSpaceOnUse"
      color-interpolation-filters="sRGB">
      <feFlood flood-opacity="0" result="BackgroundImageFix" />
      <feBlend mode="normal" in="SourceGraphic" in2="BackgroundImageFix" result="shape" />
      <feColorMatrix in="SourceAlpha" type="matrix" values="0 0 0 0 0 0 0 0 0 0 0 0 0 0 0 0 0 0 127 0"
        result="hardAlpha" />
      <feOffset dy="4" />
      <feGaussianBlur stdDeviation="2" />
      <feComposite in2="hardAlpha" operator="arithmetic" k2="-1" k3="1" />
      <feColorMatrix type="matrix" values="0 0 0 0 0 0 0 0 0 0 0 0 0 0 0 0 0 0 0.25 0" />
      <feBlend mode="normal" in2="shape" result="effect1_innerShadow_326_1269" />
    </filter>
    <filter id="filter1_i_326_1269" x="-93.4924" y="174" width="600.075" height="400.771" filterUnits="userSpaceOnUse"
      color-interpolation-filters="sRGB">
      <feFlood flood-opacity="0" result="BackgroundImageFix" />
      <feBlend mode="normal" in="SourceGraphic" in2="BackgroundImageFix" result="shape" />
      <feColorMatrix in="SourceAlpha" type="matrix" values="0 0 0 0 0 0 0 0 0 0 0 0 0 0 0 0 0 0 127 0"
        result="hardAlpha" />
      <feOffset dy="4" />
      <feGaussianBlur stdDeviation="2" />
      <feComposite in2="hardAlpha" operator="arithmetic" k2="-1" k3="1" />
      <feColorMatrix type="matrix" values="0 0 0 0 0 0 0 0 0 0 0 0 0 0 0 0 0 0 0.25 0" />
      <feBlend mode="normal" in2="shape" result="effect1_innerShadow_326_1269" />
    </filter>
    <filter id="filter2_d_326_1269" x="-72.0305" y="243.042" width="545.728" height="248.232"
      filterUnits="userSpaceOnUse" color-interpolation-filters="sRGB">
      <feFlood flood-opacity="0" result="BackgroundImageFix" />
      <feColorMatrix in="SourceAlpha" type="matrix" values="0 0 0 0 0 0 0 0 0 0 0 0 0 0 0 0 0 0 127 0"
        result="hardAlpha" />
      <feOffset dy="4" />
      <feGaussianBlur stdDeviation="2" />
      <feComposite in2="hardAlpha" operator="out" />
      <feColorMatrix type="matrix" values="0 0 0 0 0 0 0 0 0 0 0 0 0 0 0 0 0 0 0.25 0" />
      <feBlend mode="normal" in2="BackgroundImageFix" result="effect1_dropShadow_326_1269" />
      <feBlend mode="normal" in="SourceGraphic" in2="effect1_dropShadow_326_1269" result="shape" />
    </filter>
    <filter id="filter3_i_326_1269" x="-43.9519" y="659" width="593.952" height="398.349" filterUnits="userSpaceOnUse"
      color-interpolation-filters="sRGB">
      <feFlood flood-opacity="0" result="BackgroundImageFix" />
      <feBlend mode="normal" in="SourceGraphic" in2="BackgroundImageFix" result="shape" />
      <feColorMatrix in="SourceAlpha" type="matrix" values="0 0 0 0 0 0 0 0 0 0 0 0 0 0 0 0 0 0 127 0"
        result="hardAlpha" />
      <feOffset dy="4" />
      <feGaussianBlur stdDeviation="2" />
      <feComposite in2="hardAlpha" operator="arithmetic" k2="-1" k3="1" />
      <feColorMatrix type="matrix" values="0 0 0 0 0 0 0 0 0 0 0 0 0 0 0 0 0 0 0.25 0" />
      <feBlend mode="normal" in2="shape" result="effect1_innerShadow_326_1269" />
    </filter>
    <filter id="filter4_d_326_1269" x="-22.49" y="727.537" width="539.605" height="247.319" filterUnits="userSpaceOnUse"
      color-interpolation-filters="sRGB">
      <feFlood flood-opacity="0" result="BackgroundImageFix" />
      <feColorMatrix in="SourceAlpha" type="matrix" values="0 0 0 0 0 0 0 0 0 0 0 0 0 0 0 0 0 0 127 0"
        result="hardAlpha" />
      <feOffset dy="4" />
      <feGaussianBlur stdDeviation="2" />
      <feComposite in2="hardAlpha" operator="out" />
      <feColorMatrix type="matrix" values="0 0 0 0 0 0 0 0 0 0 0 0 0 0 0 0 0 0 0.25 0" />
      <feBlend mode="normal" in2="BackgroundImageFix" result="effect1_dropShadow_326_1269" />
      <feBlend mode="normal" in="SourceGraphic" in2="effect1_dropShadow_326_1269" result="shape" />
    </filter>
    <filter id="filter5_i_326_1269" x="-104.614" y="-95" width="634.232" height="431.847" filterUnits="userSpaceOnUse"
      color-interpolation-filters="sRGB">
      <feFlood flood-opacity="0" result="BackgroundImageFix" />
      <feBlend mode="normal" in="SourceGraphic" in2="BackgroundImageFix" result="shape" />
      <feColorMatrix in="SourceAlpha" type="matrix" values="0 0 0 0 0 0 0 0 0 0 0 0 0 0 0 0 0 0 127 0"
        result="hardAlpha" />
      <feOffset dy="4" />
      <feGaussianBlur stdDeviation="2" />
      <feComposite in2="hardAlpha" operator="arithmetic" k2="-1" k3="1" />
      <feColorMatrix type="matrix" values="0 0 0 0 0 0 0 0 0 0 0 0 0 0 0 0 0 0 0.25 0" />
      <feBlend mode="normal" in2="shape" result="effect1_innerShadow_326_1269" />
    </filter>
    <filter id="filter6_i_326_1269" x="-140" y="428" width="634.232" height="431.847" filterUnits="userSpaceOnUse"
      color-interpolation-filters="sRGB">
      <feFlood flood-opacity="0" result="BackgroundImageFix" />
      <feBlend mode="normal" in="SourceGraphic" in2="BackgroundImageFix" result="shape" />
      <feColorMatrix in="SourceAlpha" type="matrix" values="0 0 0 0 0 0 0 0 0 0 0 0 0 0 0 0 0 0 127 0"
        result="hardAlpha" />
      <feOffset dy="4" />
      <feGaussianBlur stdDeviation="2" />
      <feComposite in2="hardAlpha" operator="arithmetic" k2="-1" k3="1" />
      <feColorMatrix type="matrix" values="0 0 0 0 0 0 0 0 0 0 0 0 0 0 0 0 0 0 0.25 0" />
      <feBlend mode="normal" in2="shape" result="effect1_innerShadow_326_1269" />
    </filter>
    <linearGradient id="paint0_linear_326_1269" x1="215" y1="0" x2="215" y2="932" gradientUnits="userSpaceOnUse">
      <stop stop-color="#212121" />
      <stop offset="1" stop-color="white" stop-opacity="0" />
    </linearGradient>
    <linearGradient id="paint1_linear_326_1269" x1="212.5" y1="0" x2="212.5" y2="941" gradientUnits="userSpaceOnUse">
      <stop />
      <stop offset="1" stop-color="#292929" />
    </linearGradient>
    <clipPath id="clip0_326_1269">
      <rect width="430" height="932" fill="white" />
    </clipPath>
  </defs>
</svg>
