<svg xmlns="http://www.w3.org/2000/svg" width="22" height="25" viewBox="0 0 22 25" fill="none">
  <path d="M6.875 2.78042C6.51033 2.78042 6.16059 2.92671 5.90273 3.18711C5.64487 3.44751 5.5 3.80068 5.5 4.16893C5.5 4.53719 5.64487 4.89036 5.90273 5.15076C6.16059 5.41116 6.51033 5.55745 6.875 5.55745C7.23967 5.55745 7.58941 5.41116 7.84727 5.15076C8.10513 4.89036 8.25 4.53719 8.25 4.16893C8.25 3.80068 8.10513 3.44751 7.84727 3.18711C7.58941 2.92671 7.23967 2.78042 6.875 2.78042ZM2.98375 2.78042C3.26783 1.96741 3.79464 1.26338 4.49157 0.765403C5.18851 0.267421 6.02124 0 6.875 0C7.72876 0 8.56149 0.267421 9.25843 0.765403C9.95536 1.26338 10.4822 1.96741 10.7662 2.78042H20.625C20.9897 2.78042 21.3394 2.92671 21.5973 3.18711C21.8551 3.44751 22 3.80068 22 4.16893C22 4.53719 21.8551 4.89036 21.5973 5.15076C21.3394 5.41116 20.9897 5.55745 20.625 5.55745H10.7662C10.4822 6.37046 9.95536 7.07449 9.25843 7.57247C8.56149 8.07045 7.72876 8.33787 6.875 8.33787C6.02124 8.33787 5.18851 8.07045 4.49157 7.57247C3.79464 7.07449 3.26783 6.37046 2.98375 5.55745H1.375C1.01033 5.55745 0.660591 5.41116 0.402728 5.15076C0.144866 4.89036 0 4.53719 0 4.16893C0 3.80068 0.144866 3.44751 0.402728 3.18711C0.660591 2.92671 1.01033 2.78042 1.375 2.78042H2.98375ZM15.125 11.1115C14.7603 11.1115 14.4106 11.2578 14.1527 11.5182C13.8949 11.7786 13.75 12.1317 13.75 12.5C13.75 12.8683 13.8949 13.2214 14.1527 13.4818C14.4106 13.7422 14.7603 13.8885 15.125 13.8885C15.4897 13.8885 15.8394 13.7422 16.0973 13.4818C16.3551 13.2214 16.5 12.8683 16.5 12.5C16.5 12.1317 16.3551 11.7786 16.0973 11.5182C15.8394 11.2578 15.4897 11.1115 15.125 11.1115ZM11.2338 11.1115C11.5178 10.2985 12.0446 9.59445 12.7416 9.09647C13.4385 8.59848 14.2712 8.33106 15.125 8.33106C15.9788 8.33106 16.8115 8.59848 17.5084 9.09647C18.2054 9.59445 18.7322 10.2985 19.0163 11.1115H20.625C20.9897 11.1115 21.3394 11.2578 21.5973 11.5182C21.8551 11.7786 22 12.1317 22 12.5C22 12.8683 21.8551 13.2214 21.5973 13.4818C21.3394 13.7422 20.9897 13.8885 20.625 13.8885H19.0163C18.7322 14.7015 18.2054 15.4056 17.5084 15.9035C16.8115 16.4015 15.9788 16.6689 15.125 16.6689C14.2712 16.6689 13.4385 16.4015 12.7416 15.9035C12.0446 15.4056 11.5178 14.7015 11.2338 13.8885H1.375C1.01033 13.8885 0.660591 13.7422 0.402728 13.4818C0.144866 13.2214 0 12.8683 0 12.5C0 12.1317 0.144866 11.7786 0.402728 11.5182C0.660591 11.2578 1.01033 11.1115 1.375 11.1115H11.2338ZM6.875 19.4426C6.51033 19.4426 6.16059 19.5888 5.90273 19.8492C5.64487 20.1096 5.5 20.4628 5.5 20.8311C5.5 21.1993 5.64487 21.5525 5.90273 21.8129C6.16059 22.0733 6.51033 22.2196 6.875 22.2196C7.23967 22.2196 7.58941 22.0733 7.84727 21.8129C8.10513 21.5525 8.25 21.1993 8.25 20.8311C8.25 20.4628 8.10513 20.1096 7.84727 19.8492C7.58941 19.5888 7.23967 19.4426 6.875 19.4426ZM2.98375 19.4426C3.26783 18.6295 3.79464 17.9255 4.49157 17.4275C5.18851 16.9295 6.02124 16.6621 6.875 16.6621C7.72876 16.6621 8.56149 16.9295 9.25843 17.4275C9.95536 17.9255 10.4822 18.6295 10.7662 19.4426H20.625C20.9897 19.4426 21.3394 19.5888 21.5973 19.8492C21.8551 20.1096 22 20.4628 22 20.8311C22 21.1993 21.8551 21.5525 21.5973 21.8129C21.3394 22.0733 20.9897 22.2196 20.625 22.2196H10.7662C10.4822 23.0326 9.95536 23.7366 9.25843 24.2346C8.56149 24.7326 7.72876 25 6.875 25C6.02124 25 5.18851 24.7326 4.49157 24.2346C3.79464 23.7366 3.26783 23.0326 2.98375 22.2196H1.375C1.01033 22.2196 0.660591 22.0733 0.402728 21.8129C0.144866 21.5525 0 21.1993 0 20.8311C0 20.4628 0.144866 20.1096 0.402728 19.8492C0.660591 19.5888 1.01033 19.4426 1.375 19.4426H2.98375Z" fill="white"/>
</svg>
