<svg xmlns="http://www.w3.org/2000/svg" width="81" height="81" viewBox="0 0 81 81" fill="none">
  <ellipse cx="40.618" cy="40.5" rx="40.382" ry="40.2979" fill="#040DBF" />
  <path
    d="M72.1273 41.5517C70.7572 41.5517 69.7901 40.9898 69.1453 39.585C68.4199 38.1803 67.9364 36.6819 67.3722 35.1835C66.8886 34.0597 66.405 32.936 65.6797 31.9995C63.6648 29.5646 60.8439 29.8455 59.3126 32.655C58.1037 34.8089 57.7007 37.2438 57.2171 39.585C56.8142 41.739 56.4112 43.8929 55.6858 45.8595C55.5246 46.2341 55.3634 46.7023 54.9605 46.7023C54.4769 46.7023 54.4769 46.1404 54.3963 45.7659C53.5903 42.4881 53.2679 39.0231 52.9456 35.6518C52.3008 30.2201 52.059 24.6949 50.3665 19.4505C50.0441 18.3267 49.5605 17.203 48.8352 16.2665C47.2233 13.6443 45.4502 14.1125 44.3218 14.8617C44.2412 14.8617 44.1606 14.9554 44.08 14.9554C43.9188 15.1427 43.7576 15.2363 43.5965 15.33C43.5965 15.4236 43.5159 15.4236 43.5159 15.4236L43.4353 15.5173L43.2741 15.7046C43.0323 15.9855 42.7905 16.2665 42.6293 16.5474C42.2263 17.203 41.8234 17.9521 41.5816 18.795C41.098 20.1997 40.695 21.6044 40.4532 23.1028C39.0831 30.5011 39.0025 38.0866 38.2771 45.5786C38.0354 48.7626 37.713 51.9467 37.0682 55.0371C36.9876 55.4117 36.9876 55.8799 36.504 55.8799C36.1817 55.8799 36.1011 55.4117 36.0205 55.1307C35.4563 53.5387 35.0533 51.853 34.8115 50.1674C33.925 45.5786 33.4414 40.8025 32.3937 36.3073C31.9101 34.1534 31.4265 32.0931 30.2176 30.3138C28.6057 27.9726 26.0266 27.9726 24.3341 30.2201C23.7699 30.8757 23.3669 31.7185 23.0445 32.5614C21.755 36.12 21.352 39.9596 20.7073 43.6119C20.3849 45.7659 20.0625 47.9198 19.4177 49.9801C19.3371 50.3546 19.2566 50.6356 18.8536 50.6356C18.4506 50.7292 18.37 50.3546 18.2894 50.0737C18.0476 49.3245 17.8058 48.669 17.564 47.9198C16.8387 45.3913 16.1939 42.7691 14.9044 40.5215C13.5343 38.2739 11.6806 37.1502 9.26268 37.1502H1.3643C0.961323 37.1502 0.638941 37.0565 0.235962 37.3375V41.8326C0.638941 42.0199 0.961323 42.0199 1.3643 42.0199C3.86277 42.0199 6.36124 42.0199 8.8597 41.9263C10.2298 41.9263 11.1164 42.6754 11.7611 43.9865C12.5671 45.6722 12.9701 47.4515 13.5343 49.2309C14.0178 50.9165 14.5014 52.5086 15.388 53.9133C17.3223 57.191 20.7879 57.0037 22.4804 53.6324C23.9311 50.9165 24.3341 47.9198 24.8177 44.8294C25.3012 41.9263 25.6236 39.0231 26.349 36.12C26.4296 35.7454 26.5908 35.3708 26.6714 35.0899C26.8325 34.7153 26.9131 34.3407 27.2355 34.4343C27.5579 34.4343 27.6385 34.8089 27.7191 35.0899C28.2833 36.7756 28.6057 38.5549 28.928 40.4279C29.734 45.204 30.2982 50.0737 31.5071 54.7561C31.7489 55.6926 31.9907 56.6291 32.3131 57.5656C33.119 59.7195 34.2474 61.5925 36.3428 62.2481H37.1488C38.9219 61.6862 39.8085 60.1878 40.4532 58.3148C41.6622 54.8498 41.9845 51.1038 42.3875 47.3579C43.0323 40.4279 43.1935 33.4042 44.1606 26.4742C44.4024 24.6949 44.7248 22.9155 45.2084 21.2299C45.289 20.8553 45.3696 20.2934 45.7725 20.2934C46.3367 20.1997 46.3367 20.8553 46.4979 21.2299C47.3845 23.852 47.7068 26.5678 48.1098 29.3773C48.7546 34.7153 48.9158 40.2406 50.0441 45.5786C50.2859 47.0769 50.6889 48.4817 51.3336 49.7928C52.9456 53.4451 56.0888 52.6959 57.7007 50.9165C59.0708 49.3245 59.7962 47.3579 60.2798 45.204C61.0051 42.5818 61.4887 39.866 62.1335 37.2438C62.2141 36.7756 62.2141 36.12 62.7782 36.12C63.2618 36.0264 63.3424 36.7756 63.5036 37.1502C64.1484 38.9295 64.7931 40.7088 65.6797 42.3008C67.1304 45.0167 69.1453 46.515 71.9661 46.4214C74.9482 46.2341 77.8496 46.3277 80.8317 46.3277V41.6453C77.9302 41.5517 75.0288 41.458 72.1273 41.5517Z"
    fill="white" />
</svg>
