<svg xmlns="http://www.w3.org/2000/svg" width="31" height="31" viewBox="0 0 31 31" fill="none">
<ellipse cx="15.2803" cy="15.9537" rx="15.0035" ry="14.9722" fill="#0B0C10"/>
<path d="M27.0431 16.7471C26.533 16.7471 26.1729 16.5323 25.9328 15.9954C25.6628 15.4584 25.4827 14.8856 25.2727 14.3129C25.0926 13.8833 24.9126 13.4537 24.6425 13.0958C23.8923 12.165 22.8421 12.2724 22.272 13.3464C21.8219 14.1697 21.6718 15.1004 21.4918 15.9954C21.3418 16.8187 21.1917 17.6421 20.9217 18.3938C20.8616 18.537 20.8016 18.716 20.6516 18.716C20.4715 18.716 20.4715 18.5012 20.4415 18.358C20.1415 17.1051 20.0214 15.7806 19.9014 14.4919C19.6614 12.4156 19.5713 10.3036 18.9412 8.2989C18.8212 7.86933 18.6411 7.43975 18.3711 7.08178C17.7709 6.07945 17.1108 6.25843 16.6907 6.54482C16.6607 6.54482 16.6307 6.58061 16.6007 6.58061C16.5406 6.65221 16.4806 6.68801 16.4206 6.7238C16.4206 6.7596 16.3906 6.7596 16.3906 6.7596L16.3606 6.7954L16.3006 6.86699C16.2106 6.97439 16.1205 7.08178 16.0605 7.18917C15.9105 7.43975 15.7605 7.72614 15.6704 8.04831C15.4904 8.58528 15.3404 9.12224 15.2503 9.695C14.7402 12.523 14.7102 15.4226 14.4401 18.2864C14.3501 19.5035 14.2301 20.7207 13.99 21.902C13.96 22.0452 13.96 22.2241 13.78 22.2241C13.66 22.2241 13.63 22.0452 13.6 21.9378C13.3899 21.3292 13.2399 20.6849 13.1498 20.0405C12.8198 18.2864 12.6397 16.4607 12.2496 14.7425C12.0696 13.9191 11.8896 13.1316 11.4395 12.4514C10.8393 11.5565 9.87909 11.5565 9.24894 12.4156C9.03889 12.6662 8.88886 12.9884 8.76883 13.3106C8.28872 14.6709 8.13868 16.1386 7.89863 17.5347C7.7786 18.358 7.65857 19.1814 7.41852 19.9689C7.38851 20.1121 7.3585 20.2195 7.20847 20.2195C7.05843 20.2553 7.02843 20.1121 6.99842 20.0047C6.9084 19.7183 6.81838 19.4677 6.72836 19.1814C6.45829 18.2148 6.21824 17.2125 5.73813 16.3533C5.22801 15.4942 4.53785 15.0646 3.63764 15.0646H0.696953C0.546918 15.0646 0.42689 15.0288 0.276855 15.1362V16.8545C0.42689 16.9261 0.546918 16.9261 0.696953 16.9261C1.62717 16.9261 2.55739 16.9261 3.4876 16.8903C3.99772 16.8903 4.3278 17.1767 4.56785 17.6779C4.86792 18.3222 5.01796 19.0024 5.22801 19.6825C5.40805 20.3269 5.58809 20.9354 5.91817 21.4724C6.63833 22.7253 7.92863 22.6537 8.55878 21.365C9.09891 20.3269 9.24894 19.1814 9.42898 18C9.60903 16.8903 9.72905 15.7806 9.99912 14.6709C10.0291 14.5277 10.0891 14.3845 10.1191 14.2771C10.1792 14.1339 10.2092 13.9907 10.3292 14.0265C10.4492 14.0265 10.4792 14.1697 10.5092 14.2771C10.7193 14.9214 10.8393 15.6016 10.9593 16.3176C11.2594 18.1432 11.4695 20.0047 11.9196 21.7946C12.0096 22.1526 12.0996 22.5105 12.2196 22.8685C12.5197 23.6918 12.9398 24.4078 13.72 24.6584H14.0201C14.6802 24.4436 15.0103 23.8708 15.2503 23.1549C15.7004 21.8304 15.8205 20.3985 15.9705 18.9666C16.2106 16.3176 16.2706 13.6327 16.6307 10.9837C16.7207 10.3036 16.8407 9.62341 17.0207 8.97905C17.0508 8.83586 17.0808 8.62107 17.2308 8.62107C17.4408 8.58528 17.4408 8.83586 17.5009 8.97905C17.8309 9.98138 17.951 11.0195 18.101 12.0934C18.3411 14.1339 18.4011 16.246 18.8212 18.2864C18.9112 18.8592 19.0612 19.3961 19.3013 19.8973C19.9014 21.2934 21.0717 21.007 21.6718 20.3269C22.1819 19.7183 22.452 18.9666 22.6321 18.1432C22.9021 17.1409 23.0822 16.1028 23.3222 15.1004C23.3522 14.9214 23.3522 14.6709 23.5623 14.6709C23.7423 14.6351 23.7723 14.9214 23.8323 15.0646C24.0724 15.7448 24.3124 16.4249 24.6425 17.0335C25.1826 18.0716 25.9328 18.6444 26.9831 18.6086C28.0933 18.537 29.1736 18.5728 30.2838 18.5728V16.7829C29.2036 16.7471 28.1233 16.7113 27.0431 16.7471Z" fill="white"/>
</svg>
